HIERARCHY
ROOT hip
{
	OFFSET 0.000000 0.000000 0.000000 
	CHANNELS 6 Xposition Yposition Zposition Xrotation Zrotation Yrotation
	JOINT abdomen
	{
		OFFSET 0.000000 3.402643 0.000000 
		CHANNELS 3 Xrotation Zrotation Yrotation
		JOINT chest
		{
			OFFSET 0.000000 8.438565 -0.680529 
			CHANNELS 3 Xrotation Zrotation Yrotation
			JOINT neck
			{
				OFFSET 0.000000 10.207942 -0.272212 
				CHANNELS 3 Xrotation Zrotation Yrotation
				JOINT head
				{
					OFFSET 0.000000 3.130431 0.000000 
					CHANNELS 3 Xrotation Zrotation Yrotation
					End Site
					{
						OFFSET 0.000000 3.130435 0.000000 
					}
				}
			}
			JOINT lCollar
			{
				OFFSET 3.470700 6.669187 -0.816635 
				CHANNELS 3 Yrotation Zrotation Xrotation
				JOINT lShldr
				{
					OFFSET 3.198488 0.000000 0.000000 
					CHANNELS 3 Zrotation Yrotation Xrotation
					JOINT lForeArm
					{
						OFFSET 10.139888 0.000000 0.000000 
						CHANNELS 3 Yrotation Zrotation Xrotation
						JOINT lHand
						{
							OFFSET 8.370511 0.000000 0.000000 
							CHANNELS 3 Zrotation Yrotation Xrotation
							End Site
							{
								OFFSET 4.083176 0.000000 0.000000 
							}
						}
					}
				}
			}
			JOINT rCollar
			{
				OFFSET -3.470700 6.669187 -0.816635 
				CHANNELS 3 Yrotation Zrotation Xrotation
				JOINT rShldr
				{
					OFFSET -3.198488 0.000000 0.000000 
					CHANNELS 3 Zrotation Yrotation Xrotation
					JOINT rForeArm
					{
						OFFSET -10.139888 0.000000 0.000000 
						CHANNELS 3 Yrotation Zrotation Xrotation
						JOINT rHand
						{
							OFFSET -8.370511 0.000000 0.000000 
							CHANNELS 3 Zrotation Yrotation Xrotation
							End Site
							{
								OFFSET -4.083176 0.000000 0.000000 
							}
						}
					}
				}
			}
		}
	}
	JOINT lThigh
	{
		OFFSET 5.308129 -1.633274 1.361059 
		CHANNELS 3 Xrotation Zrotation Yrotation
		JOINT lShin
		{
			OFFSET -2.041588 -20.007561 0.000000 
			CHANNELS 3 Xrotation Zrotation Yrotation
			JOINT lFoot
			{
				OFFSET 0.000000 -19.190928 -1.224953 
				CHANNELS 3 Xrotation Yrotation Zrotation
				End Site
				{
					OFFSET 0.000000 -2.449906 4.627600 
				}
			}
		}
	}
	JOINT rThigh
	{
		OFFSET -5.308129 -1.633274 1.361059 
		CHANNELS 3 Xrotation Zrotation Yrotation
		JOINT rShin
		{
			OFFSET 2.041588 -20.007561 0.000000 
			CHANNELS 3 Xrotation Zrotation Yrotation
			JOINT rFoot
			{
				OFFSET 0.000000 -19.190928 -1.224953 
				CHANNELS 3 Xrotation Yrotation Zrotation
				End Site
				{
					OFFSET 0.000000 -2.449906 4.627600 
				}
			}
		}
	}
}
MOTION
Frames: 15
Frame Time: 0.033333
66.691391 49.139824 -36.736176 20.966532 -9.212682 -148.198196 48.706501 8.927347 -4.566636 -20.839844 0.000000 0.000000 10.877295 5.303129 15.416636 -2.520860 -1.255023 0.218345 -4.754609 -0.109182 -0.002653 -33.527863 -56.362957 -2.283584 -20.669727 2.327956 26.840410 4.192478 16.372431 4.604375 4.754609 0.109182 -0.002672 69.625221 13.279241 10.982430 73.352539 27.028948 17.606207 -4.049620 -39.019646 14.271135 -58.747784 12.802250 -3.061651 101.915703 6.580065 -0.925045 2.526013 2.384670 -2.749874 -63.452602 -39.166973 -1.864885 77.687271 2.881110 7.831755 4.801051 6.225523 4.524121 
66.693932 49.167747 -36.709763 21.097261 -8.921257 -148.581192 48.340527 8.768676 -4.502530 -20.839844 0.000000 0.000000 10.033327 4.996594 15.733845 -2.520860 -1.255023 0.218345 -4.754609 -0.109182 -0.002653 -34.858856 -56.194981 -0.183519 -19.863892 3.403816 27.574629 2.979504 16.313393 2.661895 4.754609 0.109182 -0.002672 70.211502 13.851493 11.287578 73.610992 26.884623 17.390238 -1.509552 -38.413239 13.291123 -58.701050 12.947179 -3.178359 101.884705 6.792221 -0.837057 2.167876 2.449807 -3.406940 -63.363930 -37.184181 -1.857571 80.920624 2.607960 8.802993 4.793202 7.404606 5.030052 
66.643616 49.180946 -36.686432 21.291492 -8.526231 -148.991531 48.362259 8.890311 -4.209083 -20.839844 0.000000 0.000000 9.125031 4.311029 15.817169 -2.520860 -1.255023 0.218345 -4.754609 -0.109182 -0.002653 -36.254017 -56.285011 1.590482 -19.131870 4.202872 28.411358 2.718342 16.618675 1.890108 4.754609 0.109182 -0.002672 70.418236 14.434126 11.547673 73.495056 26.828926 17.792364 -1.157572 -37.882797 13.710557 -58.727997 13.144011 -3.335342 102.065269 7.018891 -0.593770 1.926303 2.692868 -2.403692 -62.954720 -34.880257 -2.060555 84.841644 2.500212 9.803793 4.964931 8.627295 3.881999 
66.570412 49.195168 -36.657486 21.356176 -8.276160 -149.325150 48.449860 9.282866 -3.951769 -20.839844 0.000000 0.000000 8.091590 3.505081 15.918096 -2.520860 -1.255023 0.218345 -4.754609 -0.109182 -0.002653 -37.547825 -56.492706 3.178915 -18.451496 4.513443 29.282339 3.991127 17.423956 1.684663 4.754609 0.109182 -0.002672 70.436028 14.546831 11.696957 72.728912 26.816671 19.441971 -2.931557 -36.546757 16.186609 -58.689392 12.880385 -3.480230 102.146484 7.233977 -0.399038 1.818701 2.878102 -2.303977 -62.262100 -32.537117 -2.369817 89.038322 2.500319 10.869061 5.009437 9.954889 4.493860 
66.448212 49.195671 -36.653931 21.131611 -8.325155 -149.443451 48.249493 9.601272 -4.214036 -20.839844 0.000000 0.000000 7.340202 2.845392 16.529654 -2.520860 -1.255023 0.218345 -4.754609 -0.109182 -0.002653 -38.493481 -56.261845 3.500452 -18.396673 4.404583 29.771503 5.296134 17.358541 3.324837 4.754609 0.109182 -0.002672 71.020828 13.934183 11.651921 71.357635 26.444012 22.523582 -5.499411 -34.194050 20.668354 -58.592216 12.196951 -3.472824 102.218369 7.195271 -0.335238 1.850262 2.966711 -2.500895 -61.541069 -30.565390 -2.706514 93.595024 2.383714 11.621772 4.962804 10.746859 4.381052 
66.287987 49.147438 -36.688461 20.803728 -8.471375 -149.503387 48.331436 9.600698 -4.725580 -20.839844 0.000000 0.000000 6.455299 2.801538 17.086552 -2.520860 -1.255023 0.218345 -4.754609 -0.109182 -0.002653 -37.432369 -55.637352 0.887042 -19.496063 3.028999 28.591551 6.894659 17.421553 6.211123 4.754609 0.109182 -0.002672 71.906479 13.184162 11.613044 70.173431 25.968721 26.172144 -7.105197 -30.576229 25.727848 -58.652256 11.533153 -3.415344 102.521866 7.067492 -0.163918 1.645330 3.253191 -2.445271 -60.631310 -29.031368 -3.046548 98.516212 2.315607 12.669024 4.477606 11.901922 4.597838 
66.154572 49.109871 -36.694550 20.428598 -8.482783 -149.570786 48.438622 9.801714 -4.907764 -20.839844 0.000000 0.000000 5.335528 2.988185 17.518370 -2.520860 -1.255023 0.218345 -4.754609 -0.109182 -0.002653 -36.731750 -55.333321 -1.677094 -20.769606 1.829399 26.509813 7.906857 17.946537 8.056633 4.754609 0.109182 -0.002672 73.041000 12.607833 11.810550 69.322647 25.678473 29.131918 -9.491210 -26.745008 30.024710 -58.906960 11.150957 -3.322383 102.769493 6.950603 0.091124 1.411691 3.678564 -2.524313 -59.469090 -27.263987 -3.468823 103.226509 2.285964 13.948380 3.472270 13.371586 5.156747 
66.019730 49.103271 -36.676285 20.051947 -8.466267 -149.600388 48.780918 10.326958 -4.831878 -20.839844 0.000000 0.000000 4.247025 2.997770 18.361120 -2.520860 -1.255023 0.218345 -4.754609 -0.109182 -0.002653 -37.130802 -55.704960 -1.649449 -20.832741 2.295114 26.366333 7.953130 18.174618 8.409361 4.754609 0.109182 -0.002672 73.695946 12.092419 12.248270 69.112099 26.104883 31.456467 -12.145720 -24.792240 33.519196 -59.144814 10.799668 -3.230651 102.851196 6.765005 0.070874 1.520414 3.704754 -2.392479 -58.805851 -25.369867 -3.551414 107.595589 1.953238 14.383478 0.280860 13.668672 5.073148 
65.911850 49.173836 -36.613815 19.548128 -8.474266 -149.597183 49.193600 11.025321 -4.470111 -20.839844 0.000000 0.000000 3.047075 2.971050 18.726204 -2.520860 -1.255023 0.218345 -4.754609 -0.109182 -0.002653 -37.145535 -56.226948 -1.154785 -20.505930 2.722210 26.814449 8.114661 18.245817 8.079582 4.754609 0.109182 -0.002672 73.862289 11.788340 12.489147 68.897598 26.399609 34.109428 -14.010759 -23.636110 37.396046 -59.346169 10.477115 -3.018116 102.649307 6.413301 -0.038474 1.398556 3.747474 -2.228586 -58.898796 -23.805262 -3.246709 110.690048 1.338288 13.391810 -5.155786 12.039021 3.566081 
65.859253 49.264206 -36.518387 18.767237 -8.476820 -149.518173 49.465702 11.589023 -4.023019 -20.839844 0.000000 0.000000 1.662793 2.743665 19.369997 -2.520860 -1.255023 0.218345 -4.754609 -0.109182 -0.002653 -36.708260 -56.599575 -1.901741 -20.796053 2.569657 26.216671 8.686572 18.117407 8.346645 4.754609 0.109182 -0.002672 74.291893 11.659046 12.400398 68.760345 25.982542 36.557384 -14.398520 -21.962864 40.996960 -59.909393 10.155509 -2.762747 102.432419 5.984083 -0.096218 1.062687 3.821419 -1.432295 -59.559189 -22.987993 -2.824857 111.879745 0.860045 12.719365 -7.024889 11.362543 1.730466 
65.832550 49.348991 -36.479782 17.713741 -8.564883 -149.315399 49.680733 11.950834 -3.500762 -20.839844 0.000000 0.000000 0.209842 2.312355 19.961273 -2.520860 -1.255023 0.218345 -4.754609 -0.109182 -0.002653 -36.480747 -57.238441 -2.873174 -21.230488 2.605671 25.300169 8.949927 18.090363 8.952596 4.754609 0.109182 -0.002672 74.384346 11.923401 12.350256 69.387459 25.777596 37.451607 -14.106972 -21.631094 42.787266 -60.555099 9.725884 -2.507925 102.208801 5.563690 -0.091168 0.800180 4.054425 -1.171375 -60.606709 -22.818800 -2.309658 112.095367 0.391126 12.773324 -7.890134 11.761999 1.568776 
65.835289 49.404831 -36.504150 16.986292 -8.654572 -149.107300 49.964027 12.452219 -2.950185 -20.839844 0.000000 0.000000 -0.424259 2.506421 20.162045 -2.520860 -1.255023 0.218345 -4.754609 -0.109182 -0.002653 -35.586063 -57.411495 -4.383863 -21.672058 2.064266 24.214954 9.559844 18.015295 9.443012 4.754609 0.109182 -0.002672 74.032837 12.385892 12.464916 69.997032 25.993605 37.228634 -14.249845 -22.105328 42.876411 -60.939644 9.823128 -2.297940 102.161285 5.251513 -0.026268 0.245246 4.329780 -1.781461 -61.057705 -22.526749 -2.025640 112.111801 0.127953 12.722761 -9.332170 12.080456 0.103972 
65.879410 49.408897 -36.585388 16.687279 -8.818026 -148.803329 50.382748 12.974848 -2.700497 -20.839844 0.000000 0.000000 -0.638309 2.963619 20.382711 -2.520860 -1.255023 0.218345 -4.754609 -0.109182 -0.002653 -33.423939 -56.782185 -7.123799 -22.455339 0.646251 22.917374 10.602910 17.959076 10.376926 4.754609 0.109182 -0.002672 74.360489 12.944074 12.639297 69.668571 25.721201 36.959259 -15.092435 -22.616613 42.592323 -61.054844 10.066857 -2.197449 102.206589 5.076027 0.002881 -0.112851 4.470964 -2.458323 -60.743687 -22.623680 -2.016968 112.212700 0.049333 12.793062 -10.921742 12.242676 -0.311513 
65.967491 49.414986 -36.696060 16.327780 -9.172272 -148.181458 50.794285 13.403662 -2.878196 -20.839844 0.000000 0.000000 -1.116836 3.604568 20.611122 -2.520860 -1.255023 0.218345 -4.754609 -0.109182 -0.002653 -32.321430 -56.423100 -8.423502 -22.661884 0.585661 22.647106 10.767220 17.903339 11.125528 4.754609 0.109182 -0.002672 74.946068 13.541365 12.557108 68.897324 24.817602 36.927856 -15.369274 -23.449362 42.576210 -61.116348 9.881721 -2.140444 102.091827 5.017068 0.027061 -0.207409 4.602363 -3.513773 -60.141262 -23.679642 -2.228468 112.233978 0.136952 12.882438 -13.152661 12.093413 0.953838 
66.075729 49.414986 -36.843811 15.774857 -9.630562 -147.638519 50.844688 13.306512 -3.131324 -20.839844 0.000000 0.000000 -1.578504 4.377997 20.504913 -2.520860 -1.255023 0.218345 -4.754609 -0.109182 -0.002653 -31.798752 -56.076920 -8.890208 -22.675425 0.395737 22.969378 11.167130 17.548967 11.864047 4.754609 0.109182 -0.002672 75.401321 13.468899 11.994980 68.503548 23.714947 37.052982 -15.003016 -24.022509 43.042595 -61.343140 9.823115 -2.027842 102.044304 4.821676 0.166071 -0.213056 4.942139 -4.336527 -59.769905 -25.124384 -2.539232 112.444115 0.353278 12.818193 -15.083769 11.813711 0.983095 
